<?xml version="1.0" encoding="utf-8"?>
<!-- Generator: Adobe Illustrator 22.1.0, SVG Export Plug-In . SVG Version: 6.00 Build 0)  -->
<svg version="1.1" id="b759170a-51c3-4e2f-999d-77dec9fd6d11"
	 xmlns="http://www.w3.org/2000/svg" xmlns:xlink="http://www.w3.org/1999/xlink" x="0px" y="0px" viewBox="0 0 430 787.3"
	 style="enable-background:new 0 0 430 787.3;" xml:space="preserve">
<style type="text/css">
	.st0{fill:#AFC0E0;}
	.st1{opacity:0.2;fill:#FFFFFF;enable-background:new    ;}
	.st2{opacity:0.1;enable-background:new    ;}
	.st3{fill:#E3E8F4;}
	.st4{fill:#6C63FF;}
</style>
<title>maker launch</title>
<path class="st0" d="M136.5,570c-2.6,0.5-5.1,1.2-7.5,2.1c-53.9,21.5-53,162.5-53,162.5H60.1c0,0-5-60.5-26.8-146.8
	c-19.6-77.7,60.9-147.3,77.2-160.5c1.8-1.5,2.9-2.3,2.9-2.3C194.5,454.9,136.5,570,136.5,570z"/>
<path class="st1" d="M119.3,427.5c-1.9-0.9-3.8-1.7-5.9-2.4c0,0-1,0.8-2.9,2.3c-16.4,13.2-96.9,82.8-77.2,160.5
	C55.1,674.2,60,734.7,60,734.7h8.9c0,0-4.9-60.5-26.8-146.8C22.7,510.5,102.4,441.1,119.3,427.5z"/>
<path class="st0" d="M404,587.8c-21.8,86.3-26.8,146.8-26.8,146.8h-15.9c0,0,1-147.4-56.7-163.8c-1.3-0.4-2.5-0.7-3.8-0.9
	c0,0-58-115.1,23.1-144.9c0,0,0.8,0.6,2.3,1.8C341.3,438.9,423.9,509.3,404,587.8z"/>
<path class="st2" d="M136.5,570c-2.6,0.5-5.1,1.2-7.5,2.1c-9.8-47.7-15.9-96.1-18.5-144.8c1.8-1.5,2.9-2.3,2.9-2.3
	C194.5,454.9,136.5,570,136.5,570z"/>
<path class="st2" d="M326.3,426.9c-3.3,48.5-10.5,96.7-21.6,144c-1.3-0.4-2.5-0.7-3.8-0.9c0,0-58-115.1,23.1-144.9
	C324,425.1,324.8,425.7,326.3,426.9z"/>
<path class="st3" d="M296.6,591.8c-5.6,22.1-12.2,44.8-19.7,68c-11.3,34.9-35.7,37.2-122,0c0,0-8.6-24.3-18.1-65.6
	c-20.9-90.8-45.9-263.9,7.4-441.7C160.1,99,182.7,47.8,211.4,0c0,0,45.6,52.3,79,152.4S345.1,400.5,296.6,591.8z"/>
<circle class="st0" cx="218.7" cy="293.6" r="71.6"/>
<path class="st4" d="M269.5,293.6c0,28.1-22.7,50.8-50.8,50.8c-11.7,0-23.1-4.1-32.2-11.5c-3.6-3-6.8-6.5-9.5-10.3
	c-1.2-1.7-2.3-3.5-3.3-5.4c-3.8-7.3-5.8-15.4-5.8-23.6c0-0.4,0-0.8,0-1.2c0.5-22.3,15.5-41.6,37-47.7c4-1.1,8.1-1.7,12.2-1.9h1.5
	C246.7,242.8,269.4,265.6,269.5,293.6L269.5,293.6z"/>
<path class="st0" d="M290.4,152.4c-81.3,38.9-146.2,0-146.2,0C160.1,99,182.7,47.8,211.4,0C211.4,0,257,52.3,290.4,152.4z"/>
<path class="st0" d="M296.6,591.8c-3.8,15-8,30.2-12.7,45.7c-2.2,7.4-4.5,14.8-7,22.3c-3.7,11.3-35.7,37.2-122,0c0,0-2.8-7.9-7-22.3
	c-3.1-10.9-7-25.5-11.1-43.3c0,0,32.1,13.7,77.7,13.7C242.6,607.9,270.5,602.5,296.6,591.8z"/>
<path class="st3" d="M283.9,637.4c-2.2,7.4-4.5,14.8-7,22.3c-3.7,11.3-35.7,37.2-122,0c0,0-2.8-7.9-7-22.3
	C147.9,637.4,235.8,662.7,283.9,637.4z"/>
<path class="st1" d="M204.9,244.6l-0.1,0.1l-36.9,47.6c0,0.4,0,0.8,0,1.2c0,8.2,2,16.3,5.8,23.6l43.5-74.4L204.9,244.6z"/>
<path class="st1" d="M216.7,287.6l-30.2,45.3c-3.6-3-6.8-6.5-9.5-10.3l36-38.6L216.7,287.6z"/>
<path class="st1" d="M174.2,659.8c0,0-8.6-24.3-18.1-65.6c-20.9-90.8-45.9-263.9,7.4-441.7c14.3-48.1,34.1-94.4,58.9-138.1
	c-6.8-9.5-11-14.3-11-14.3c-28.7,47.8-51.3,99-67.2,152.4c-53.3,177.8-28.3,350.9-7.4,441.7c9.5,41.3,18.1,65.6,18.1,65.6
	c34.1,14.7,60.3,17.8,79.5,16.1C217.9,674.6,198,670,174.2,659.8z"/>
</svg>
