<?xml version="1.0" standalone="no"?><!DOCTYPE svg PUBLIC "-//W3C//DTD SVG 1.1//EN" "http://www.w3.org/Graphics/SVG/1.1/DTD/svg11.dtd"><svg t="1594564310125" class="icon" viewBox="0 0 1024 1024" version="1.1" xmlns="http://www.w3.org/2000/svg" p-id="627" xmlns:xlink="http://www.w3.org/1999/xlink" width="200" height="200"><defs><style type="text/css"></style></defs><path d="M512 886c-76.6 0-148.7-29.8-202.9-84s-84-126.2-84-202.9c0-37.7 14.2-83.7 43.3-140.8 21.9-42.9 52.3-91.8 90.3-145.3 64.2-90.3 127.3-161.8 130-164.8 5.7-6.4 13.8-10.1 22.4-10.1h0.1c8.6 0 16.7 3.6 22.4 10 2.7 3 66.3 74.5 130.9 164.8 38.3 53.5 68.9 102.3 90.9 145.3 29.3 57.1 43.6 103.2 43.6 140.9 0 76.6-29.8 148.7-84 202.9s-126.4 84-203 84z m-0.8-671.9c-24 28.7-64.2 78.1-103.9 134.1C328.4 459 285.1 548.1 285.1 599c0 60.6 23.6 117.6 66.5 160.5C394.4 802.4 451.4 826 512 826c60.6 0 117.6-23.6 160.5-66.5C715.4 716.6 739 659.6 739 599c0-51-43.8-140.2-123.3-251.3-40.1-55.8-80.4-105.1-104.5-133.6z" p-id="628"></path><path d="M476.4 790.8c-0.6 0-1.3-0.1-1.9-0.2-40.8-7.8-77.4-28.3-105.7-59.1-28.4-31-45.7-69.4-49.8-111.1-0.5-5.5 3.5-10.4 9-10.9s10.4 3.5 10.9 9c3.7 37.4 19.2 71.8 44.7 99.6 25.4 27.6 58.1 45.9 94.7 52.9 5.4 1 9 6.3 7.9 11.7-0.9 4.8-5.1 8.1-9.8 8.1z" p-id="629"></path></svg>